<svg xmlns="http://www.w3.org/2000/svg" xml:space="preserve" width="1500" height="1500" data-id="lg_grTEqOZKTkywGhV4bX" data-version="1" viewBox="0 0 1500 1500"><path fill="#fff" stroke="transparent" d="M0 0h1500v1500H0z"/><g data-padding="20"><g transform="translate(-571.429 -585.906)scale(1.72194)"><rect width="359.169" height="106.22" x="307.975" y="668.925" fill="none" rx="0" ry="0" transform="translate(380.33 53.78)"/><path fill="#303030" d="M762.06 769.865v34.06l-2.59.41q-2.6.42-6.59.95-3.99.52-8.35.94-4.36.41-7.94.41-9.83 0-18.2-2.71-8.38-2.71-14.6-7.8-6.22-5.1-9.66-12.26t-3.44-16.06q0-8.91 3.71-16 3.72-7.09 10.42-12.07 6.71-4.98 15.77-7.62t19.76-2.64q6.06 0 10.05.67 3.99.66 5.99 1.35t2.09.69v22.17q-6.75-2.06-12.49-2.06-7.34 0-12.18 2.73t-7.23 6.88-2.39 8.42q0 4.96 2.73 8.13 2.73 3.16 7.51 3.16 1.05 0 2.11-.16t1.84-.48q.09-1.7.09-4.38v-6.63q8.81 0 13.65-.03 4.84-.02 6.96-.02 2.11 0 2.54-.02Zm6.38 34.98v-73.3h52.83v21.11h-24.28v6.02h24.19v17.99h-24.19v6.93h25.89v21.25Zm61.18 0v-73.3h7.44l40.02 28.55v-28.55h25.84v73.3h-9.87l-37.68-25.2v25.2Zm80.46-73.3h29.05v22.54l17.67-22.54h29.79l-23.68 30.89 27.35 42.41H956.8l-15.33-25.93-1.7 2.98v22.95h-29.69Zm114.18 0v73.3h-28.55v-73.3Z"/><rect width="100" height="50.38" x="233.465" y="394.598" fill="#303030" rx="7" ry="7" transform="translate(85.78 53.43)scale(1.72)"/><path fill="#fff" d="M545.53 738.455c-20.423 0-36.98 16.557-36.98 36.98s16.557 36.98 36.98 36.98 36.98-16.557 36.98-36.98-16.557-36.98-36.98-36.98m11.24 35.17-13.68 23.71-.06.09c-.3.58-.67 1.14-1.44.86-.81-.3-.62-1-.52-1.61q.55-2.99 1.12-5.96l1.97-10.46c.06-.3.07-.6.12-1.03q-.64-.04-1.15-.05l-7.74.04q-2.27.02-1.1-1.96l13.68-23.7.06-.09c.3-.58.67-1.14 1.44-.86.81.3.62 1 .51 1.61q-.54 2.98-1.1 5.95l-1.99 10.47c-.06.3-.07.6-.12 1.03q.63.04 1.15.05l7.74-.04q2.27-.02 1.1 1.96m55.54-14.932a16.752 16.752 0 1 0 0 33.504 16.752 16.752 0 1 0 0-33.504"/></g><path fill="transparent" stroke="transparent" stroke-width="1.786" d="M250 655.357h1000v189.286H250z"/></g></svg>